<mxfile host="Electron" agent="Mozilla/5.0 (Macintosh; Intel Mac OS X 10_15_7) AppleWebKit/537.36 (KHTML, like Gecko) draw.io/24.7.8 Chrome/128.0.6613.36 Electron/32.0.1 Safari/537.36" version="24.7.8">
  <diagram name="Page-1" id="M-J2hQaEqkAF_H8mkpg_">
    <mxGraphModel dx="1603" dy="1214" grid="1" gridSize="10" guides="1" tooltips="1" connect="1" arrows="1" fold="1" page="1" pageScale="1" pageWidth="827" pageHeight="1169" math="0" shadow="0">
      <root>
        <mxCell id="0" />
        <mxCell id="1" parent="0" />
        <mxCell id="qI8_qAPlaHJ_v-PPU4QN-16" value="" style="rounded=0;whiteSpace=wrap;html=1;fillColor=#fff2cc;strokeColor=#d6b656;" parent="1" vertex="1">
          <mxGeometry x="120" y="320" width="370" height="280" as="geometry" />
        </mxCell>
        <mxCell id="qI8_qAPlaHJ_v-PPU4QN-2" value="" style="image;aspect=fixed;perimeter=ellipsePerimeter;html=1;align=center;shadow=0;dashed=0;spacingTop=3;image=img/lib/active_directory/shadowed_router.svg;" parent="1" vertex="1">
          <mxGeometry x="270" y="340" width="73.8" height="90" as="geometry" />
        </mxCell>
        <mxCell id="qI8_qAPlaHJ_v-PPU4QN-4" value="" style="image;aspect=fixed;perimeter=ellipsePerimeter;html=1;align=center;shadow=0;dashed=0;spacingTop=3;image=img/lib/active_directory/shadowed_router.svg;" parent="1" vertex="1">
          <mxGeometry x="390" y="432" width="73.8" height="90" as="geometry" />
        </mxCell>
        <mxCell id="qI8_qAPlaHJ_v-PPU4QN-5" value="" style="image;aspect=fixed;perimeter=ellipsePerimeter;html=1;align=center;shadow=0;dashed=0;spacingTop=3;image=img/lib/active_directory/shadowed_router.svg;" parent="1" vertex="1">
          <mxGeometry x="150" y="432" width="73.8" height="90" as="geometry" />
        </mxCell>
        <mxCell id="qI8_qAPlaHJ_v-PPU4QN-7" value="" style="fontColor=#0066CC;verticalAlign=top;verticalLabelPosition=bottom;labelPosition=center;align=center;html=1;outlineConnect=0;fillColor=#CCCCCC;strokeColor=#6881B3;gradientColor=none;gradientDirection=north;strokeWidth=2;shape=mxgraph.networks.pc;" parent="1" vertex="1">
          <mxGeometry x="412.84999999999997" y="530" width="28.1" height="25" as="geometry" />
        </mxCell>
        <mxCell id="qI8_qAPlaHJ_v-PPU4QN-8" value="" style="fontColor=#0066CC;verticalAlign=top;verticalLabelPosition=bottom;labelPosition=center;align=center;html=1;outlineConnect=0;fillColor=#CCCCCC;strokeColor=#6881B3;gradientColor=none;gradientDirection=north;strokeWidth=2;shape=mxgraph.networks.pc;" parent="1" vertex="1">
          <mxGeometry x="172.84999999999997" y="530" width="28.1" height="25" as="geometry" />
        </mxCell>
        <mxCell id="qI8_qAPlaHJ_v-PPU4QN-9" value="" style="image;aspect=fixed;perimeter=ellipsePerimeter;html=1;align=center;shadow=0;dashed=0;spacingTop=3;image=img/lib/active_directory/tunnel.svg;" parent="1" vertex="1">
          <mxGeometry x="235.35" y="523.38" width="143.1" height="28.62" as="geometry" />
        </mxCell>
        <mxCell id="qI8_qAPlaHJ_v-PPU4QN-10" value="" style="endArrow=none;html=1;rounded=0;entryX=0;entryY=1;entryDx=0;entryDy=0;exitX=1;exitY=0;exitDx=0;exitDy=0;fillColor=#dae8fc;strokeColor=#6c8ebf;dashed=1;" parent="1" source="qI8_qAPlaHJ_v-PPU4QN-5" target="qI8_qAPlaHJ_v-PPU4QN-2" edge="1">
          <mxGeometry width="50" height="50" relative="1" as="geometry">
            <mxPoint x="420" y="632" as="sourcePoint" />
            <mxPoint x="470" y="582" as="targetPoint" />
          </mxGeometry>
        </mxCell>
        <mxCell id="qI8_qAPlaHJ_v-PPU4QN-11" value="" style="endArrow=none;html=1;rounded=0;entryX=1;entryY=1;entryDx=0;entryDy=0;exitX=0;exitY=0;exitDx=0;exitDy=0;fillColor=#dae8fc;strokeColor=#6c8ebf;dashed=1;" parent="1" source="qI8_qAPlaHJ_v-PPU4QN-4" target="qI8_qAPlaHJ_v-PPU4QN-2" edge="1">
          <mxGeometry width="50" height="50" relative="1" as="geometry">
            <mxPoint x="223" y="455" as="sourcePoint" />
            <mxPoint x="291" y="427" as="targetPoint" />
          </mxGeometry>
        </mxCell>
        <mxCell id="qI8_qAPlaHJ_v-PPU4QN-12" value="" style="shape=mxgraph.signs.transportation.truck_1;html=1;pointerEvents=1;fillColor=#dae8fc;strokeColor=#6c8ebf;verticalLabelPosition=bottom;verticalAlign=top;align=center;rotation=24;shadow=0;gradientColor=none;" parent="1" vertex="1">
          <mxGeometry x="356" y="411" width="34" height="19" as="geometry" />
        </mxCell>
        <mxCell id="qI8_qAPlaHJ_v-PPU4QN-14" value="" style="shape=mxgraph.signs.transportation.truck_1;html=1;pointerEvents=1;fillColor=#dae8fc;strokeColor=#6c8ebf;verticalLabelPosition=bottom;verticalAlign=top;align=center;rotation=338;shadow=0;gradientColor=none;direction=east;flipV=0;flipH=1;" parent="1" vertex="1">
          <mxGeometry x="223.8" y="411" width="34" height="19" as="geometry" />
        </mxCell>
        <mxCell id="qI8_qAPlaHJ_v-PPU4QN-15" value="" style="shape=mxgraph.signs.transportation.train_3;html=1;pointerEvents=1;fillColor=#dae8fc;strokeColor=#6c8ebf;verticalLabelPosition=bottom;verticalAlign=top;align=center;" parent="1" vertex="1">
          <mxGeometry x="286.9" y="501.38" width="40" height="22" as="geometry" />
        </mxCell>
        <mxCell id="qI8_qAPlaHJ_v-PPU4QN-19" value="" style="verticalLabelPosition=bottom;html=1;verticalAlign=top;align=center;strokeColor=none;fillColor=#00BEF2;shape=mxgraph.azure.user;" parent="1" vertex="1">
          <mxGeometry x="176.65" y="565" width="20.5" height="20" as="geometry" />
        </mxCell>
        <mxCell id="qI8_qAPlaHJ_v-PPU4QN-20" value="" style="verticalLabelPosition=bottom;html=1;verticalAlign=top;align=center;strokeColor=none;fillColor=#00BEF2;shape=mxgraph.azure.user;" parent="1" vertex="1">
          <mxGeometry x="416.65" y="565" width="20.5" height="20" as="geometry" />
        </mxCell>
      </root>
    </mxGraphModel>
  </diagram>
</mxfile>
